<svg xmlns="http://www.w3.org/2000/svg" width="39" height="36" viewBox="0 0 39 36">
    <defs>
        <linearGradient id="a" x1="50%" x2="50%" y1="0%" y2="100%">
            <stop offset="0%" stop-color="#F80"/>
            <stop offset="100%" stop-color="#F60"/>
        </linearGradient>
    </defs>
    <path fill="url(#a)" fill-rule="evenodd" d="M72.868 22.405a.833.833 0 0 0-1.126-.296l-13.494 7.646a.804.804 0 0 0-.395.863l4.541 21.78a.443.443 0 0 1-.092.337l-.552.61c-1.147 1.27-2.119 1.958-3.966 1.958-2.07 0-3.043-1.071-4.583-2.965-1.839-2.262-4.127-5.076-9.69-5.076h-.137c-.759 0-1.374.604-1.374 1.348 0 .745.615 1.349 1.374 1.349h.137c4.24 0 5.844 1.972 7.543 4.06C52.57 55.887 54.29 58 57.784 58c3.017 0 4.678-1.377 6.022-2.865l4.96-5.49L80.562 36.59a.797.797 0 0 0 .097-.94l-7.79-13.244z" transform="translate(-42 -22)"/>
</svg>
